<?xml version="1.0" encoding="utf-8"?>
<!-- Generator: Adobe Illustrator 19.2.1, SVG Export Plug-In . SVG Version: 6.00 Build 0)  -->
<svg version="1.1" id="Calque_1" xmlns="http://www.w3.org/2000/svg" xmlns:xlink="http://www.w3.org/1999/xlink" x="0px" y="0px"
	 viewBox="0 0 100 100" style="enable-background:new 0 0 100 100;" xml:space="preserve">
<style type="text/css">
	.st0{fill:none;stroke:#FFDC64;stroke-width:4;stroke-miterlimit:10;}
	.st1{fill:#49D3BE;}
</style>
<title>logo-V2-webOK</title>
<circle class="st0" cx="50" cy="49.5" r="44.8"/>
<path class="st1" d="M15.1,51.9c-0.2,0.4-0.2,0.8-0.1,1.2c0.1,0.8,0.2,1.6,0.3,2.5c0.8,4.8,2.5,9.4,5.1,13.4
	c3.5,5.4,8.3,9.7,14,12.5c2.9,1.4,6,2.4,9.2,3c3.4,0.6,6.8,0.7,10.2,0.4c6.7-0.7,13.1-3.4,18.4-7.7c3.9-3.1,7-7.1,9.3-11.5
	c0.8-1.5,1.4-3.1,2-4.7c0.2-0.3,0.2-0.8-0.1-1.1c-0.2-0.1-0.4-0.3-0.6-0.4L56,44c-0.2-0.1-0.4-0.2-0.7-0.3c-0.4,0-0.8,0.1-1.1,0.4
	c-0.9,0.5-1.8,0.8-2.8,1c-4.6,0.8-9.1-2.2-9.9-6.9c-0.8-4.6,2.2-9.1,6.9-9.9c3.8-0.7,7.6,1.3,9.3,4.8c0.3,0.7,0.6,1.5,0.7,2.2
	c0.1,0.4,0.1,0.8,0.1,1.2c-0.1,0.5-0.1,1,0,1.4c0.2,0.2,0.4,0.4,0.7,0.4l18.6,9.3l7.1-0.1c0.5-0.1,0.2-1.4,0.2-1.7
	c-0.1-0.8-0.2-1.6-0.3-2.4c-0.9-4.7-2.7-9.2-5.3-13.2c-3.5-5.3-8.4-9.5-14.1-12.2c-2.9-1.4-6-2.4-9.1-2.9c-3.3-0.6-6.8-0.7-10.1-0.2
	c-6.6,0.8-12.9,3.4-18.1,7.6c-3.8,3.1-6.9,7-9.2,11.3c-0.8,1.5-1.3,3-2,4.6c-0.3,0.4-0.3,0.8-0.1,1.2c0.2,0.2,0.4,0.3,0.6,0.4
	l26.9,15.7c0.4,0.3,1,0.3,1.3-0.1c0.2-0.1,0.5-0.3,0.7-0.4c2.4-1.2,5.3-1.2,7.7,0c4.2,2.1,5.9,7.3,3.8,11.5
	c-2.1,4.2-7.3,5.9-11.5,3.8c-1.9-0.9-3.3-2.5-4.1-4.5c-0.3-0.7-0.5-1.5-0.6-2.3c0-0.4,0-0.9,0-1.3c0.1-0.4,0-0.8-0.3-1
	c-0.2-0.1-0.4-0.3-0.6-0.4l-18.3-9.3l-7.1-0.1"/>
</svg>
